<?xml version="1.0" encoding="utf-8"?>
<!-- Generator: Adobe Illustrator 16.0.0, SVG Export Plug-In . SVG Version: 6.00 Build 0)  -->
<!DOCTYPE svg PUBLIC "-//W3C//DTD SVG 1.1//EN" "http://www.w3.org/Graphics/SVG/1.1/DTD/svg11.dtd">
<svg version="1.1" id="Capa_1" xmlns="http://www.w3.org/2000/svg" xmlns:xlink="http://www.w3.org/1999/xlink" x="0px" y="0px"
	 width="171.3px" height="47.183px" viewBox="0 0 171.3 47.183" enable-background="new 0 0 171.3 47.183" xml:space="preserve">
<g>
	
		<image overflow="visible" opacity="0.51" width="170" height="49" xlink:href="62188DB3.png"  transform="matrix(1 0 0 1 1.3 -1.1499)">
	</image>
	<g>
		<g>
			<path fill="#042789" d="M3.7,42.5C4.9,26.799,5.4,14.7,5.4,6.3V2.5c3.4,0,5.7,0.1,6.9,0.1c0.5,0,2.6,0,6.3-0.1
				C18.2,6.9,18,11.1,17.7,15C17.4,20.5,17.2,25.6,17.1,30.299C17,35.1,17,39.1,17,42.5L11,42.4C9.8,42.4,7.4,42.5,3.7,42.5z"/>
			<path fill="#FFFFFF" d="M23.7,42.5l0.5-5.102l1-17.4l0.3-7V9.2c2.5,0,4.8,0,6.7,0c1.398,0,3.3,0,5.8,0l10.398,19L49.8,31
				c0.2-2.701,0.4-6.602,0.6-11.5c0.2-4.9,0.302-8.3,0.302-10.2c2,0,3.6,0,4.8,0c0.6,0,2.1,0,4.8,0l-0.6,7.3L58.6,36.799L58.5,42.6
				c-2.102,0-4.102,0-5.9,0c-1.5,0-3.6,0-6.398,0c-0.802-1.6-1.5-2.801-1.9-3.5l-4.1-7c-1.302-2.301-2.602-4.5-3.7-6.5
				c-0.7-1.301-1.5-2.8-2.3-4.3l-0.5,11.6L33.4,42.6c-2,0-3.6,0-4.6,0C27.8,42.4,26.1,42.5,23.7,42.5z"/>
			<path fill="#FFFFFF" d="M64.8,42.5c0.3-3.301,0.6-6,0.7-8c0.2-3,0.398-7,0.6-12.202c0.2-5.2,0.3-8.7,0.3-10.5V9.2
				c4.9,0,9.5,0,13.7,0s8.3,0,12.3,0C92.1,12.9,92,15.4,92,16.5L89.9,16.4H88.2h-1.7h-4.8c-0.602,0-2.2,0-4.9,0l-0.2,5.7l3.5,0.1h4
				c1.102,0,2.9,0,5.2-0.1c-0.2,3.1-0.3,5.5-0.3,7.199c-2.602-0.1-4.602-0.1-5.8-0.1c-2.102,0-4.5,0-7,0.1L75.9,38.1v3.3V42.5h-5.3
				C70.1,42.4,68.2,42.5,64.8,42.5z"/>
			<path fill="#FFFFFF" d="M115.5,8.5c2.6,0,5.1,0.4,7.5,1c2.398,0.7,4.5,1.8,6.3,3.4s3.2,3.3,4.1,5.3c0.9,2,1.302,4.3,1.302,6.9
				c0,2.699-0.5,5.199-1.5,7.5c-1,2.3-2.4,4.199-4.302,5.8c-1.898,1.601-4.1,2.8-6.6,3.5S117.1,43,114.3,43s-5.4-0.4-7.9-1.102
				S101.7,40,99.8,38.4S96.6,35,95.8,33s-1.2-4.201-1.2-6.602c0-3.6,0.8-6.7,2.5-9.4s4.102-4.8,7.3-6.3
				C107.6,9.2,111.5,8.5,115.5,8.5z M115.1,15.9c-1.898,0-3.6,0.5-5.1,1.4c-1.5,0.9-2.7,2.2-3.5,3.8s-1.2,3.4-1.2,5.3
				c0,1.7,0.4,3.3,1.1,4.7c0.7,1.4,1.9,2.6,3.4,3.4c1.5,0.799,3.1,1.199,4.8,1.199c1.8,0,3.5-0.5,5-1.4
				c1.5-0.899,2.7-2.199,3.4-3.799c0.7-1.602,1.2-3.301,1.2-5.102c0-1.699-0.4-3.3-1.102-4.8s-1.8-2.6-3.2-3.4
				C118.5,16.3,116.9,15.9,115.1,15.9z"/>
			<path fill="#042789" d="M138.8,41.9c-0.3-4.2-0.5-7.5-0.9-10c2.2,1,4.102,1.7,5.9,2c1.7,0.399,3.2,0.601,4.5,0.601
				c1.7,0,3.1-0.201,4.1-0.701s1.5-1.198,1.5-2.198c0-0.302,0-0.601-0.1-1c-0.1-0.302-0.3-0.601-0.6-1
				c-0.302-0.399-0.7-0.802-1.2-1.2l-5.5-4.8c-1.3-1.1-2.2-1.9-2.7-2.4c-1-1-1.8-1.9-2.4-2.8c-0.6-0.9-1-1.7-1.3-2.6
				c-0.3-0.9-0.398-1.8-0.398-2.8c0-1.2,0.198-2.4,0.6-3.5s1.1-2.2,1.9-3.2c0.8-1,2-1.9,3.3-2.6C146.9,3,148.4,2.5,150,2.2
				c1.6-0.3,3.2-0.4,4.898-0.4c3.302,0,6.9,0.4,10.802,1.1c0.1,1.3,0.1,2.6,0.198,3.7C166,7.7,166.2,9.7,166.5,12.5
				c-1.8-0.7-3.4-1.2-4.9-1.5s-2.8-0.4-3.8-0.4c-1.5,0-2.8,0.3-3.8,0.8c-1,0.6-1.5,1.3-1.5,2.1c0,0.4,0.1,0.8,0.2,1.1
				c0.198,0.4,0.398,0.8,0.898,1.3s1,1,1.7,1.6s1.8,1.5,3.3,2.7l2.102,1.7c0.6,0.5,1.3,1.101,2,1.8c0.698,0.7,1.3,1.4,1.898,2.1
				c0.602,0.701,0.9,1.302,1.2,1.9c0.3,0.6,0.5,1.2,0.6,1.801c0.102,0.601,0.2,1.199,0.2,1.899c0,1.8-0.398,3.399-1.3,5
				c-0.8,1.601-2,2.899-3.6,3.899c-1.602,1-3.2,1.701-5.102,2.201c-1.898,0.5-3.8,0.6-5.8,0.6C147.6,43.299,143.6,42.799,138.8,41.9
				z"/>
		</g>
	</g>
</g>
</svg>
